<mxfile host="app.diagrams.net" modified="2024-03-25T22:36:37.989Z" agent="Mozilla/5.0 (Windows NT 10.0; Win64; x64) AppleWebKit/537.36 (KHTML, like Gecko) Chrome/122.0.0.0 Safari/537.36" etag="3g_UhDkkWCPPCVWflLK9" version="24.1.0" type="device">
  <diagram name="PÃ¡gina-1" id="vbOGfk5iJTFSjeD28d8R">
    <mxGraphModel dx="1041" dy="522" grid="1" gridSize="10" guides="1" tooltips="1" connect="1" arrows="1" fold="1" page="1" pageScale="1" pageWidth="827" pageHeight="1169" math="0" shadow="0">
      <root>
        <mxCell id="0" />
        <mxCell id="1" parent="0" />
        <mxCell id="0VPr1rxeREGL98D7X7g_-1" value="1" style="ellipse;whiteSpace=wrap;html=1;aspect=fixed;" parent="1" vertex="1">
          <mxGeometry x="400" y="40" width="50" height="50" as="geometry" />
        </mxCell>
        <mxCell id="0VPr1rxeREGL98D7X7g_-14" value="" style="endArrow=classic;html=1;rounded=0;entryX=0.5;entryY=0;entryDx=0;entryDy=0;" parent="1" target="0VPr1rxeREGL98D7X7g_-1" edge="1">
          <mxGeometry width="50" height="50" relative="1" as="geometry">
            <mxPoint x="425" y="10" as="sourcePoint" />
            <mxPoint x="464" y="-60" as="targetPoint" />
          </mxGeometry>
        </mxCell>
        <mxCell id="dLSK0X0-4pFbgPWj33sY-8" value="" style="endArrow=classic;html=1;rounded=0;exitX=0.5;exitY=1;exitDx=0;exitDy=0;entryX=0.5;entryY=0;entryDx=0;entryDy=0;" parent="1" source="0VPr1rxeREGL98D7X7g_-1" edge="1">
          <mxGeometry width="50" height="50" relative="1" as="geometry">
            <mxPoint x="567" y="90" as="sourcePoint" />
            <mxPoint x="425" y="130" as="targetPoint" />
          </mxGeometry>
        </mxCell>
        <mxCell id="6QdrHdOYux9Q1r3POH7Q-1" value="&lt;div style=&quot;background-color: rgb(30, 31, 34); color: rgb(188, 190, 196); font-size: 10px;&quot;&gt;&lt;pre style=&quot;font-family: &amp;quot;JetBrains Mono&amp;quot;, monospace;&quot;&gt;&lt;span style=&quot;color:#cf8e6d;&quot;&gt;for&lt;/span&gt;(&lt;span style=&quot;color:#cf8e6d;&quot;&gt;int &lt;/span&gt;i=&lt;span style=&quot;color:#2aacb8;&quot;&gt;0&lt;/span&gt;; i&amp;lt;&lt;span style=&quot;color:#c77dbb;&quot;&gt;nChildren&lt;/span&gt;; i++)&lt;/pre&gt;&lt;/div&gt;" style="text;whiteSpace=wrap;html=1;" vertex="1" parent="1">
          <mxGeometry x="460" y="40" width="180" height="40" as="geometry" />
        </mxCell>
        <mxCell id="6QdrHdOYux9Q1r3POH7Q-2" value="&lt;div style=&quot;background-color: rgb(30, 31, 34); color: rgb(188, 190, 196); font-size: 10px;&quot;&gt;&lt;pre style=&quot;font-family: &amp;quot;JetBrains Mono&amp;quot;, monospace; font-size: 10px;&quot;&gt;&lt;span style=&quot;color: rgb(207, 142, 109); font-size: 10px;&quot;&gt;if &lt;/span&gt;(children[i].isEmpty())&lt;/pre&gt;&lt;/div&gt;" style="text;whiteSpace=wrap;html=1;fontSize=10;" vertex="1" parent="1">
          <mxGeometry x="460" y="130" width="150" height="40" as="geometry" />
        </mxCell>
        <mxCell id="6QdrHdOYux9Q1r3POH7Q-3" value="2" style="ellipse;whiteSpace=wrap;html=1;aspect=fixed;" vertex="1" parent="1">
          <mxGeometry x="400" y="130" width="50" height="50" as="geometry" />
        </mxCell>
        <mxCell id="6QdrHdOYux9Q1r3POH7Q-4" value="" style="endArrow=classic;html=1;rounded=0;exitX=0.06;exitY=0.288;exitDx=0;exitDy=0;exitPerimeter=0;entryX=0;entryY=1;entryDx=0;entryDy=0;" edge="1" parent="1" source="6QdrHdOYux9Q1r3POH7Q-3" target="0VPr1rxeREGL98D7X7g_-1">
          <mxGeometry width="50" height="50" relative="1" as="geometry">
            <mxPoint x="360" y="130" as="sourcePoint" />
            <mxPoint x="410" y="80" as="targetPoint" />
            <Array as="points">
              <mxPoint x="380" y="110" />
            </Array>
          </mxGeometry>
        </mxCell>
        <mxCell id="6QdrHdOYux9Q1r3POH7Q-5" value="&lt;font style=&quot;font-size: 10px;&quot;&gt;false&lt;/font&gt;" style="text;html=1;align=center;verticalAlign=middle;resizable=0;points=[];autosize=1;strokeColor=none;fillColor=none;" vertex="1" parent="1">
          <mxGeometry x="340" y="100" width="40" height="30" as="geometry" />
        </mxCell>
        <mxCell id="6QdrHdOYux9Q1r3POH7Q-7" value="" style="endArrow=classic;html=1;rounded=0;exitX=0.5;exitY=1;exitDx=0;exitDy=0;entryX=0.5;entryY=0;entryDx=0;entryDy=0;" edge="1" parent="1">
          <mxGeometry width="50" height="50" relative="1" as="geometry">
            <mxPoint x="424.5" y="180" as="sourcePoint" />
            <mxPoint x="424.5" y="220" as="targetPoint" />
          </mxGeometry>
        </mxCell>
        <mxCell id="6QdrHdOYux9Q1r3POH7Q-8" value="3" style="ellipse;whiteSpace=wrap;html=1;aspect=fixed;" vertex="1" parent="1">
          <mxGeometry x="400" y="220" width="50" height="50" as="geometry" />
        </mxCell>
        <mxCell id="6QdrHdOYux9Q1r3POH7Q-9" value="&lt;div style=&quot;background-color: rgb(30, 31, 34); color: rgb(188, 190, 196); font-size: 10px;&quot;&gt;&lt;pre style=&quot;font-family: &amp;quot;JetBrains Mono&amp;quot;, monospace;&quot;&gt;&lt;span style=&quot;color:#cf8e6d;&quot;&gt;for&lt;/span&gt;(&lt;span style=&quot;color:#cf8e6d;&quot;&gt;int &lt;/span&gt;j=i+&lt;span style=&quot;color:#2aacb8;&quot;&gt;1&lt;/span&gt;; j&amp;lt;&lt;span style=&quot;color:#c77dbb;&quot;&gt;nChildren&lt;/span&gt;; j++)&lt;/pre&gt;&lt;/div&gt;" style="text;whiteSpace=wrap;html=1;" vertex="1" parent="1">
          <mxGeometry x="460" y="220" width="190" height="40" as="geometry" />
        </mxCell>
        <mxCell id="6QdrHdOYux9Q1r3POH7Q-10" value="" style="endArrow=classic;html=1;rounded=0;exitX=0;exitY=1;exitDx=0;exitDy=0;entryX=0;entryY=1;entryDx=0;entryDy=0;" edge="1" parent="1" source="6QdrHdOYux9Q1r3POH7Q-8" target="6QdrHdOYux9Q1r3POH7Q-12">
          <mxGeometry width="50" height="50" relative="1" as="geometry">
            <mxPoint x="399" y="260" as="sourcePoint" />
            <mxPoint x="380" y="290" as="targetPoint" />
            <Array as="points">
              <mxPoint x="410" y="290" />
            </Array>
          </mxGeometry>
        </mxCell>
        <mxCell id="6QdrHdOYux9Q1r3POH7Q-11" value="&lt;div style=&quot;background-color: rgb(30, 31, 34); color: rgb(188, 190, 196); font-size: 10px;&quot;&gt;&lt;pre style=&quot;font-family: &amp;quot;JetBrains Mono&amp;quot;, monospace;&quot;&gt;children[j-&lt;span style=&quot;color:#2aacb8;&quot;&gt;1&lt;/span&gt;] = children[j];&lt;/pre&gt;&lt;/div&gt;" style="text;whiteSpace=wrap;html=1;" vertex="1" parent="1">
          <mxGeometry x="170" y="290" width="165" height="50" as="geometry" />
        </mxCell>
        <mxCell id="6QdrHdOYux9Q1r3POH7Q-12" value="4" style="ellipse;whiteSpace=wrap;html=1;aspect=fixed;direction=west;" vertex="1" parent="1">
          <mxGeometry x="335" y="290" width="50" height="50" as="geometry" />
        </mxCell>
        <mxCell id="6QdrHdOYux9Q1r3POH7Q-13" value="" style="endArrow=classic;html=1;rounded=0;exitX=0.5;exitY=1;exitDx=0;exitDy=0;entryX=0;entryY=0.5;entryDx=0;entryDy=0;" edge="1" parent="1" source="6QdrHdOYux9Q1r3POH7Q-12" target="6QdrHdOYux9Q1r3POH7Q-8">
          <mxGeometry width="50" height="50" relative="1" as="geometry">
            <mxPoint x="310" y="270" as="sourcePoint" />
            <mxPoint x="360" y="220" as="targetPoint" />
            <Array as="points">
              <mxPoint x="360" y="260" />
            </Array>
          </mxGeometry>
        </mxCell>
        <mxCell id="6QdrHdOYux9Q1r3POH7Q-14" value="" style="endArrow=classic;html=1;rounded=0;exitX=0;exitY=0;exitDx=0;exitDy=0;" edge="1" parent="1" source="6QdrHdOYux9Q1r3POH7Q-12">
          <mxGeometry width="50" height="50" relative="1" as="geometry">
            <mxPoint x="510" y="260" as="sourcePoint" />
            <mxPoint x="420" y="360" as="targetPoint" />
          </mxGeometry>
        </mxCell>
        <mxCell id="6QdrHdOYux9Q1r3POH7Q-15" value="5" style="ellipse;whiteSpace=wrap;html=1;aspect=fixed;direction=west;" vertex="1" parent="1">
          <mxGeometry x="414" y="350" width="50" height="50" as="geometry" />
        </mxCell>
        <mxCell id="6QdrHdOYux9Q1r3POH7Q-16" value="&lt;div style=&quot;background-color: rgb(30, 31, 34); color: rgb(188, 190, 196); font-size: 10px;&quot;&gt;&lt;pre style=&quot;font-family: &amp;quot;JetBrains Mono&amp;quot;, monospace;&quot;&gt;children[&lt;span style=&quot;color:#c77dbb;&quot;&gt;nChildren&lt;/span&gt;-&lt;span style=&quot;color:#2aacb8;&quot;&gt;1&lt;/span&gt;] = &lt;span style=&quot;color:#cf8e6d;&quot;&gt;null&lt;/span&gt;;&lt;/pre&gt;&lt;/div&gt;" style="text;html=1;align=center;verticalAlign=middle;resizable=0;points=[];autosize=1;strokeColor=none;fillColor=none;" vertex="1" parent="1">
          <mxGeometry x="464" y="350" width="180" height="50" as="geometry" />
        </mxCell>
        <mxCell id="6QdrHdOYux9Q1r3POH7Q-17" value="&lt;div style=&quot;background-color: rgb(30, 31, 34); color: rgb(188, 190, 196); font-size: 10px;&quot;&gt;&lt;pre style=&quot;font-family: &amp;quot;JetBrains Mono&amp;quot;, monospace;&quot;&gt;&lt;span style=&quot;color:#c77dbb;&quot;&gt;nChildren&lt;/span&gt;--;&lt;/pre&gt;&lt;/div&gt;" style="text;whiteSpace=wrap;html=1;" vertex="1" parent="1">
          <mxGeometry x="340" y="430" width="120" height="70" as="geometry" />
        </mxCell>
        <mxCell id="6QdrHdOYux9Q1r3POH7Q-18" value="" style="endArrow=classic;html=1;rounded=0;exitX=0.5;exitY=0;exitDx=0;exitDy=0;entryX=0.5;entryY=1;entryDx=0;entryDy=0;" edge="1" parent="1" source="6QdrHdOYux9Q1r3POH7Q-15" target="6QdrHdOYux9Q1r3POH7Q-19">
          <mxGeometry width="50" height="50" relative="1" as="geometry">
            <mxPoint x="445" y="430" as="sourcePoint" />
            <mxPoint x="426" y="480" as="targetPoint" />
          </mxGeometry>
        </mxCell>
        <mxCell id="6QdrHdOYux9Q1r3POH7Q-19" value="6" style="ellipse;whiteSpace=wrap;html=1;aspect=fixed;direction=west;" vertex="1" parent="1">
          <mxGeometry x="414" y="430" width="50" height="50" as="geometry" />
        </mxCell>
        <mxCell id="6QdrHdOYux9Q1r3POH7Q-20" value="&lt;div style=&quot;background-color: rgb(30, 31, 34); color: rgb(188, 190, 196); font-size: 10px;&quot;&gt;&lt;pre style=&quot;font-family: &amp;quot;JetBrains Mono&amp;quot;, monospace;&quot;&gt;&lt;span style=&quot;color:#cf8e6d;&quot;&gt;break&lt;/span&gt;;&lt;/pre&gt;&lt;/div&gt;" style="text;html=1;align=center;verticalAlign=middle;resizable=0;points=[];autosize=1;strokeColor=none;fillColor=none;" vertex="1" parent="1">
          <mxGeometry x="354" y="510" width="60" height="50" as="geometry" />
        </mxCell>
        <mxCell id="6QdrHdOYux9Q1r3POH7Q-25" value="" style="endArrow=classic;html=1;rounded=0;exitX=0.5;exitY=0;exitDx=0;exitDy=0;entryX=0.5;entryY=1;entryDx=0;entryDy=0;" edge="1" parent="1" target="6QdrHdOYux9Q1r3POH7Q-26">
          <mxGeometry width="50" height="50" relative="1" as="geometry">
            <mxPoint x="439" y="480" as="sourcePoint" />
            <mxPoint x="426" y="560" as="targetPoint" />
          </mxGeometry>
        </mxCell>
        <mxCell id="6QdrHdOYux9Q1r3POH7Q-26" value="7" style="ellipse;whiteSpace=wrap;html=1;aspect=fixed;direction=west;" vertex="1" parent="1">
          <mxGeometry x="414" y="510" width="50" height="50" as="geometry" />
        </mxCell>
      </root>
    </mxGraphModel>
  </diagram>
</mxfile>
